<svg viewBox="0 0 178 35" class="_3Cq0A _18HZg _1S4tQ rF1Fm">
						<path
							d="M.169.23h23.66v5.952h-8.365v26.516H8.398V6.168H.168zM174.49 6.719c0 3.611-3.013 6.539-6.73 6.539-3.718 0-6.73-2.928-6.73-6.539 0-3.611 3.012-6.54 6.73-6.54 3.717 0 6.73 2.928 6.73 6.54zM177.86 29.151s-.212-4.87-2.232-8.933c-1.462-2.938-3.94-5.441-7.62-5.441-2.312 0-4.178 1.414-5.603 3.488-.67.975-1.367 2.104-1.843 3.293-.69 1.726-1.054 3.587-1.34 5.36-.687 4.263.122 7.928.122 7.928s.558-1.273 1.76-2.883c.767-1.029 1.84-2.077 3.154-3.136 1.558-1.256 3.715-2.62 5.888-3.046 6.248-1.226 7.715 3.37 7.715 3.37z"
						></path>
						<path
							d="M34.142 30.722v1.949h5.942V8.876h-6.43v16.799s-.838 1.244-3.166 1.854c-2.328.609-3.005-.284-3.262-.677-.257-.392-.474-2.004-.474-2.004V8.876h-6.443v16.988s.115 6.598 5.82 7.186c1.1.114 2.26.117 3.204-.091a10.118 10.118 0 002.63-.995c1.374-.74 2.18-1.242 2.18-1.242zM56.638 27.175v5.495s-1.367.46-5.09.46c-4.9 0-5.685-3.41-5.787-4.546-.007-.086-.08-.713-.087-1.678l.024-12.454h-3.177V8.876h3.167V1.54h6.443v7.335h4.507v5.591h-4.453v12.735s.068.555 1.137.623c1.07.068 3.316-.69 3.316-.69M78.7 20.99c0 6.823-3.735 12.355-10.637 12.355-6.092 0-10.477-5.532-10.477-12.355S61.524 8.635 68.063 8.635c7.267 0 10.638 5.532 10.638 12.355zm-10.489-6.971c-3.018 0-4.02 3.078-4.02 6.876 0 3.797 1.056 6.876 4.02 6.876 3.154 0 4.02-3.079 4.02-6.876 0-3.798-.893-6.876-4.02-6.876zM81.137 32.698h6.497V18.472s.988-1.43 1.94-2.193c.994-.797 2.173-1.015 2.426-1.015.619 0 1.725.081 1.725.081v-6.71s-2.64-.03-4.08.843c-1.442.873-2.477 2.294-2.477 2.294V8.875h-5.97l-.06 23.823zM96.973 32.698V.23h9.394l5.793 20.76L118.089.23h9.42v32.468h-6.334V10.716l-6.335 21.982h-5.36l-6.226-21.982v21.982zM138.25 25.334c.186.562.873 1.99 2.537 2.274 1.665.285 2.58.122 3.838-.61 1.258-.73 2.233-2.172 2.233-2.172l4.771 2.944s-1.107 2.214-3.644 3.777c-.877.54-1.441.792-2.994 1.198-1.064.278-2.275.386-3.685.386-2.492 0-4.434-.717-5.92-1.901-1.557-1.24-2.722-2.926-3.39-4.9-.66-1.958-.832-3.523-.832-6.315 0-2.095.486-4.255 1.478-6.124.755-1.423 1.75-2.672 3.1-3.602 1.518-1.045 3.47-1.685 5.764-1.685 6.714 0 9.04 6.064 9.446 7.174.407 1.11.495 3.505.495 3.505v2.965h-13.813s.406 2.454.616 3.086zm-.616-7.796h7.742s-.108-3.926-3.87-3.926c-3.764 0-3.872 3.926-3.872 3.926z"
						></path>
					</svg>